<?xml version="1.0" encoding="UTF-8"?>
<svg version="1.1" viewBox="-40 0 1220 950" xmlns="http://www.w3.org/2000/svg">
<path transform="translate(696,108)" d="m0 0h210l7 1-2 4-7 10-6 13-3 13-1 9-1 137-2 43-4 42-6 39-6 29-8 29-11 32-10 24-10 21-12 21-14 21-12 16-11 13-9 10-7 8-13 13-8 7-12 10-15 11-18 11-16 7-12 4h-4l2-4 8-10 13-16 14-20 14-21 12-20 13-22 15-28 9-20 1-9-6 5-11 15-12 19-30 52-13 22-12 18-10 13-13 15-11 10-13 8-12 5-13 3h-23l-20-4-21-8-22-8-24-5-9-1h-43l-30 3-43 7-47 9-25 5-25 3h-23l-17-2-14-4-12-5-10-7-8-9-4-9-1-4v-17l6-17 5-13 2-8 1-9v-43l3-10 6-5 2-1h8l7 6 2 6 1 9 1 23 2 14 4-1 1-4 1-33 5-10 6-3 8 1 5 4 3 7 1 6 1 22 2 13 1 2 3-1 1-4v-20l1-16 4-9 5-4h10l6 5 3 8 2 27 3 12h3l1-3 1-36 3-9 5-4 9-1 6 3 4 7 2 13 2 23 2 6h3l2-8v-30l2-9 4-6 5-3 9 1 5 5 3 6 2 16 2 19 2 5h3l1-6v-36l3-11 7-6h7l6 4 4 6 3 18 2 15 3 8h3l1-2v-44l3-8 6-5h8l6 4 4 8 2 11 2 18 3 10 3 1 1-3v-51l3-11 4-5 4-2h9l8 6 6 10 11 33 8 16 8 10 8 7 16 8 11 3 7 1h17l15-3 16-8 14-10 15-14 13-14 9-11 12-14 13-17 9-14 2-5v-8l-5-18-1-16 3-16 4-9 6-10 10-10 14-9 11-7 7-6 9-14 5-16 3-18 2-26 1-23v-46l-8 10-9 10-9 11-12 14-9 11-12 14-18 22-39 48-22 28-12 15-13 17-13 16-10 13-11 14-7 9-5 4-6 1-6-4-7-8-12-17-26-36-12-17-14-19-12-17-26-36-14-19-6-9-1 63-2 24-3 18-6 21-6 15-9 15-11 12-10 8-15 8-9 3h-8l2-5 7-11 5-11 4-12 3-18 1-13v-75l-1-165-1-6 2-1h43l6 3 10 13 12 17 13 18 36 51 10 14 14 20 10 14 28 40 11 16 2 1 2-5 10-15 16-25 11-17 12-19 14-22 15-24 12-20 13-22 12-21 12-25 7-20 3-16v-16l-3-12-7-14-5-6z" fill="#F6F6E9" stroke="#F6F6E9" stroke-width="3" stroke-linejoin="round"/>
<path transform="translate(114,110)" d="m0 0h389l3 3 1 3 4 82v22l-1 1h-6l-17-10-16-8-18-7-14-3-9-1h-68l-3 2-1 3-1 265-3 16-5 13-8 11-9 9-7 5-16 6-6 1h-71l-2-1 2-5 8-8 8-12 6-16 3-19v-266l-3-4-3-1h-72l-19 3-18 6-16 8-16 9-8 5-4-1-1-2 1-14 11-87 3-6z" fill="#61B2C1" stroke="#61B2C1" stroke-width="3" stroke-linejoin="round"/>
<path transform="translate(696,108)" d="m0 0h210l7 1-2 4-7 10-6 13-3 13-1 9-1 137-2 43-4 42-6 39-6 29-8 29-11 32-10 24-10 21-12 21-14 21-12 16-11 13-9 10-7 8-13 13-8 7-12 10-15 11-18 11-16 7-12 4h-4l2-4 8-10 13-16 14-20 14-21 12-20 13-22 15-28 9-20 1-9-6 5-11 15-12 19-30 52-13 22-12 18-10 13-13 15-11 10-13 8-12 5-13 3h-23l-20-4-21-8-22-8-24-5-9-1h-43l-30 3-43 7-47 9-25 5-25 3h-23l-17-2-14-4-12-5-10-7-8-9-4-9-1-4v-17l6-17 5-13 2-8 1-9v-43l3-10 6-5 2-1h8l7 6 2 6 1 9 1 23 2 14 4-1 1-4 1-33 5-10 6-3 8 1 5 4 3 7 1 6 1 22 2 13 1 2 3-1 1-4v-20l1-16 4-9 5-4h10l6 5 3 8 2 27 3 12h3l1-3 1-36 3-9 5-4 9-1 6 3 4 7 2 13 2 23 2 6h3l2-8v-30l2-9 4-6 5-3 9 1 5 5 3 6 2 16 2 19 2 5h3l1-6v-36l3-11 7-6h7l6 4 4 6 3 18 2 15 3 8h3l1-2v-44l3-8 6-5h8l6 4 4 8 2 11 2 18 3 10 3 1 1-3v-51l3-11 4-5 4-2h9l8 6 6 10 11 33 8 16 8 10 8 7 16 8 11 3 7 1h17l15-3 16-8 14-10 15-14 13-14 9-11 12-14 13-17 9-14 2-5v-8l-5-18-1-16 3-16 4-9 6-10 10-10 14-9 11-7 7-6 9-14 5-16 3-18 2-26 1-23v-46l-8 10-9 10-9 11-12 14-9 11-12 14-18 22-39 48-22 28-12 15-13 17-13 16-10 13-11 14-7 9-5 4-6 1-6-4-7-8-12-17-26-36-12-17-14-19-12-17-26-36-14-19-6-9-1 63-2 24-3 18-6 21-6 15-9 15-11 12-10 8-15 8-9 3h-8l2-5 7-11 5-11 4-12 3-18 1-13v-75l-1-165-1-6 2-1h43l6 3 10 13 12 17 13 18 36 51 10 14 14 20 10 14 28 40 11 16 2 1 2-5 10-15 16-25 11-17 12-19 14-22 15-24 12-20 13-22 12-21 12-25 7-20 3-16v-16l-3-12-7-14-5-6zm13 9 7 17 2 12v12l-3 18-7 21-12 25-9 17-13 22-12 20-15 24-14 22-12 19-14 22-22 34-15 23-10-14-16-23-13-19-13-18-11-16-26-36-11-16-24-34-13-18-10-14-3-4-4-1h-32l-1 1v243l-2 19-4 17-7 17 6-2 11-7 10-10 9-13 8-17 6-20 3-16 2-19 1-29 1-64 8 11 10 13 13 18 14 19 12 17 14 19 12 17 39 54 14 20 6 7 5-1 13-16 10-13 12-15 10-13 14-18 12-15 11-14 18-22 11-14 11-13 9-11 13-16 9-11 12-14 22-26 9-11 13-14 5-6 3 4 1 3v27l-1 42-2 31-4 25-5 15-7 12-10 10-20 12-10 8-8 10-5 10-3 11v16l4 17 1 3v12l-5 12-10 14-13 16-9 11-12 14-9 10-16 16-12 9-14 8-10 4-10 2-14 1-18-2-14-4-15-8-10-9-8-10-9-19-9-29-6-11-4-3-6 1-3 4-2 7v14l1 16v18l-3 12-3 1h-8l-5-6-4-13-2-23-3-8-2-2h-5l-3 4-1 3v42l-3 7-5 3-6-1-4-5-4-10-3-27-3-7-7-1-3 5-1 5v38l-3 8-4 3h-6l-5-5-3-9-2-26-3-10-3-2-5 1-3 5-1 5v33l-3 9-4 3h-7l-5-5-3-9-2-28-3-9-5-2-5 4-1 3-1 38-4 8-2 1h-7l-5-5-3-9-2-29-3-9-6-1-4 4-2 10v29l-2 7-5 5h-6l-5-5-3-10-1-23-1-11-3-5-1-1h-5l-3 3-1 4-1 32-3 8-4 3h-7l-5-6-2-9-2-36-3-6-5-1-4 4-2 6v45l-3 17-5 13-5 12-1 4v12l5 12 7 8 11 7 15 5 10 2 10 1h25l17-2 33-6 45-9 44-7 28-3h45l20 3 19 5 19 7 15 6 14 4 16 2 16-1 15-4 14-7 11-9 9-9 11-14 11-15 12-19 15-26 14-25 13-22 11-16 7-9 8-8 4-2h7l2 2v11l-5 14-9 19-12 22-17 29-16 25-13 19-12 16-4 6 6-2 18-11 21-16 11-10 8-7 13-13v-2h2l7-8 11-13 11-15 12-18 10-17 12-23 12-28 10-28 8-29 7-31 6-38 4-39 2-38 1-149 2-15 5-15 4-7v-2z" fill="#61B2C1" stroke="#61B2C1" stroke-width="3" stroke-linejoin="round"/>
<path transform="translate(767,430)" d="m0 0h17l12 4 10 7 7 8 5 10 2 9v10l-3 13-6 10-8 8-8 5-9 3-13 1-11-2-13-7-8-8-6-11-2-7v-18l4-11 6-9 8-8 10-5z" fill="#61B2C1" stroke="#61B2C1" stroke-width="3" stroke-linejoin="round"/>
<path transform="translate(700,683)" d="m0 0 2 2 5-1-5 4-6 3-2-1z" fill="#FDFEFE" stroke="#FDFEFE" stroke-width="2" stroke-linejoin="round"/>
<path transform="translate(764,782) scale(1.5)" d="m0 0h18l4 9 12 42 14-48 1-2 3-1h15l3 5 13 44 3-8 12-40 2-1h16l1 5-17 49-7 20-1 1h-18l-4-10-11-37-2 3-13 43-1 1h-19l-4-8-12-37-9-26z" fill="#61B2C1" stroke="#61B2C1" stroke-width="3" stroke-linejoin="round"/>
<path transform="translate(370,754) scale(1.5)" d="m0 0h17l1 1 1 34 7-6 8-3h14l10 5 5 6 4 11v54l-1 1h-17l-1-1-1-48-4-8-4-2h-10l-6 4-3 5-1 5-1 45h-18l-1-1v-101z" fill="#61B2C1" stroke="#61B2C1" stroke-width="3" stroke-linejoin="round"/>
<path transform="translate(568,780) scale(1.5)" d="m0 0h17l12 4 8 6 6 7 4 10 1 4v17l-4 12-7 9-9 6-7 3-6 1h-12l-11-3-11-7-6-8-4-10-1-5v-14l4-13 6-8 7-6 9-4zm3 17-6 3-5 6-2 5v16l4 9 5 4 8 3 9-1 5-3 5-6 2-5 1-10-2-9-4-7-6-4-3-1z" fill="#61B2C1" stroke="#61B2C1" stroke-width="3" stroke-linejoin="round"/>
<path transform="translate(243,780) scale(1.5)" d="m0 0h14l11 4 8 7 5 9 2 9v15l-1 1h-49l4 9 5 5 9 3h9l12-3 6-2 1 1v13l-3 3-11 4-5 1h-15l-13-4-8-6-5-6-5-11-1-4v-16l4-13 7-9 7-6zm2 16-6 3-4 5-2 7h32l-3-10-5-4-2-1z" fill="#61B2C1" stroke="#61B2C1" stroke-width="3" stroke-linejoin="round"/>
<path transform="translate(713,780) scale(1.5)" d="m0 0h16l10 3 6 4 6 7 3 10 1 53h-16l-2-3-1-5-7 6-6 3-5 1h-10l-11-4-6-7-3-8v-8l3-8 5-6 10-5 7-2 8-1h14l-3-9-6-3h-16l-9 3-7 1v-14l5-4 8-3zm11 43-9 2-6 4-2 3 1 7 4 4 2 1h7l8-3 5-5 1-2v-11z" fill="#61B2C1" stroke="#61B2C1" stroke-width="3" stroke-linejoin="round"/>
<path transform="translate(490,780) scale(1.5)" d="m0 0h13l9 3 7 6 4 8 1 4 1 55-1 1h-18l-1-43-2-9-3-5-5-2h-10l-6 3-4 8-1 47-1 1h-18v-75h18l1 8 8-7z" fill="#61B2C1" stroke="#61B2C1" stroke-width="3" stroke-linejoin="round"/>
<path transform="translate(145,756) scale(1.5)" d="m0 0h77l1 1v16l-1 1h-30v83h-19l-1-1v-82h-28l-1-1v-15z" fill="#61B2C1" stroke="#61B2C1" stroke-width="3" stroke-linejoin="round"/>
<path transform="translate(326,780) scale(1.5)" d="m0 0h15l11 3 3 2v17l-9-3-5-1h-10l-8 3-5 6-2 6v12l3 9 6 5 4 2h14l12-4 1 4v11l-8 5-8 2h-14l-13-4-9-7-6-10-3-10v-16l4-13 7-9 8-6 7-3z" fill="#61B2C1" stroke="#61B2C1" stroke-width="3" stroke-linejoin="round"/>
<path transform="translate(654,756) scale(1.5)" d="m0 0h18v78l-3 10-7 9-8 4-13 2-11-2-6-3v-16l9 2h12l5-5 2-9 1-69z" fill="#61B2C1" stroke="#61B2C1" stroke-width="3" stroke-linejoin="round"/>
</svg>
